<svg height="512pt" viewBox="-61 0 512 512" width="512pt" xmlns="http://www.w3.org/2000/svg"><path d="m341.523438 24.054688c-13.65625 0-26.023438 5.621093-34.925782 14.664062-4.75-22.101562-24.433594-38.71875-47.929687-38.71875-17.414063 0-32.730469 9.132812-41.429688 22.855469-8.703125-13.722657-24.015625-22.855469-41.429687-22.855469-22.359375 0-41.257813 15.050781-47.132813 35.550781-8.949219-9.53125-21.652343-15.503906-35.726562-15.503906-27.035157 0-49.03125 21.996094-49.03125 49.035156v49.925781c-17.554688 3.617188-32.046875 17.550782-35.566407 36l-2.992187 15.667969c-3.554687 18.652344-5.359375 37.730469-5.359375 56.710938 0 32.15625 10.746094 63.941406 30.261719 89.496093 1.496093 1.960938 3.757812 2.992188 6.046875 2.992188 1.609375 0 3.230468-.507812 4.609375-1.5625 3.339843-2.546875 3.976562-7.320312 1.429687-10.65625-17.5-22.921875-27.140625-51.429688-27.140625-80.269531 0-18.027344 1.714844-36.148438 5.089844-53.859375l2.992187-15.671875c2.949219-15.464844 17.472657-26.171875 33.054688-24.378907 36.105469 4.15625 72.726562 4.199219 108.84375.125 16.210938-1.824218 31.296875 9.292969 34.351562 25.320313l.148438.773437c1.65625 8.683594-.320312 17.382813-5.5625 24.5-5.261719 7.140626-13.019531 11.621094-21.847656 12.617188-19.242188 2.167969-38.789063 3.316406-58.183594 3.414062h-4.863281c-2.847657 0-5.453125 1.59375-6.757813 4.128907-1.300781 2.53125-1.082031 5.582031.574219 7.898437 1.421875 1.992188 3.714844 3.175782 6.160156 3.1875 1.640625.003906 3.277344.003906 4.921875-.003906h9.148438c5.277344 0 10.542968.492188 15.652344 1.46875 13.394531 2.539062 26.105468 8.453125 36.761718 17.101562 19.613282 15.890626 30.863282 39.472657 30.863282 64.707032 0 4.199218 3.402343 7.605468 7.601562 7.605468s7.605469-3.40625 7.605469-7.605468c0-29.84375-13.304688-57.734375-36.492188-76.519532-4.613281-3.742187-9.550781-7.054687-14.738281-9.894531 1.152344-.121093 2.300781-.246093 3.449219-.378906 12.894531-1.453125 24.699219-8.269531 32.386719-18.707031 4.042968-5.484375 6.777343-11.769532 8.117187-18.339844 7.71875 15.65625 23.84375 26.457031 42.445313 26.457031h3.472656c19.425781 0 36.148437-11.777343 43.421875-28.566406 8.679687 10.167969 21.578125 16.632813 35.964843 16.632813h3.472657c12.375 0 23.648437-4.785157 32.089843-12.59375v26.746093c0 4.199219 3.402344 7.605469 7.601563 7.605469s7.605469-3.40625 7.605469-7.605469v-130.460937c0-27.039063-21.996094-49.035156-49.035156-49.035156zm-282.398438 94.425781v-49.398438c0-18.652343 15.171875-33.824219 33.824219-33.824219 18.652343 0 33.824219 15.171876 33.824219 33.824219v52.066407c-22.574219.75-45.210938-.136719-67.648438-2.667969zm104.359375.007812c-7.148437.808594-14.320313 1.4375-21.5 1.910157v-71.363282c0-18.652344 15.171875-33.828125 33.824219-33.828125s33.824218 15.175781 33.824218 33.828125v93.558594c-8.863281-16.210938-26.972656-26.273438-46.148437-24.105469zm129.007813 35.546875c0 17.691406-14.394532 32.089844-32.089844 32.089844h-3.46875c-17.695313 0-32.089844-14.398438-32.089844-32.089844v-105c0-18.652344 15.171875-33.828125 33.824219-33.828125 18.652343 0 33.824219 15.175781 33.824219 33.828125zm50.769531 20.15625h-3.472657c-17.691406 0-32.089843-14.398437-32.089843-32.089844v-69.011718c0-18.652344 15.175781-33.824219 33.828125-33.824219 18.648437 0 33.824218 15.171875 33.824218 33.824219v69.011718c0 17.691407-14.394531 32.089844-32.089843 32.089844zm0 0"/><path d="m57.722656 327.792969c-2.546875-3.335938-7.320312-3.976563-10.65625-1.429688-3.339844 2.550781-3.976562 7.320313-1.429687 10.660157l8.875 11.625c23.886719 31.289062 37.042969 70.199218 37.042969 109.566406v46.179687c0 4.199219 3.40625 7.605469 7.605468 7.605469 4.199219 0 7.601563-3.40625 7.601563-7.605469v-46.179687c0-42.683594-14.261719-84.871094-40.164063-118.796875zm0 0"/><path d="m382.957031 225.351562c-4.199219 0-7.605469 3.402344-7.605469 7.601563v9.28125c0 30.632813-5.902343 60.535156-17.542968 88.871094-11.644532 28.335937-28.46875 53.75-50.003906 75.53125-8.148438 8.246093-12.636719 19.167969-12.636719 30.761719v66.996093c0 4.199219 3.402343 7.605469 7.601562 7.605469s7.605469-3.40625 7.605469-7.605469v-66.996093c0-7.5625 2.925781-14.691407 8.242188-20.066407 22.941406-23.203125 40.859374-50.269531 53.257812-80.449219 12.398438-30.175781 18.6875-62.023437 18.6875-94.648437v-9.28125c-.003906-4.199219-3.40625-7.601563-7.605469-7.601563zm0 0"/></svg>
